<?xml version="1.0" encoding="UTF-8" standalone="no"?>
<!DOCTYPE svg PUBLIC "-//W3C//DTD SVG 1.1//EN" "http://www.w3.org/Graphics/SVG/1.1/DTD/svg11.dtd">
<svg width="100%" height="100%" viewBox="0 0 2481 2481" version="1.1" xmlns="http://www.w3.org/2000/svg" xmlns:xlink="http://www.w3.org/1999/xlink" xml:space="preserve" xmlns:serif="http://www.serif.com/" style="fill-rule:evenodd;clip-rule:evenodd;stroke-linejoin:round;stroke-miterlimit:2;">
    <g transform="matrix(5.05601,0,0,5.05601,-30.723,-23.8443)">
        <path d="M371.401,490.054C437.647,490.052 491.428,436.265 491.426,370.019L491.415,129.959C491.413,63.713 437.626,9.933 371.38,9.935L131.32,9.946C65.074,9.948 11.293,63.734 11.295,129.98L11.306,370.04C11.308,436.286 65.095,490.067 131.341,490.065L371.401,490.054Z" style="fill:url(#_Linear1);"/>
    </g>
    <g transform="matrix(5.05601,0,0,5.05601,-30.723,-23.8443)">
        <path d="M211.101,285.053L349.948,146.207C355.428,140.727 364.326,140.727 369.806,146.207L389.662,166.063C395.142,171.543 395.142,180.441 389.662,185.92L221.789,353.793C218.856,356.727 214.944,358.09 211.101,357.883C207.258,358.09 203.345,356.727 200.412,353.793L119.982,273.364C114.502,267.885 114.502,258.987 119.982,253.507L139.839,233.65C145.319,228.17 154.217,228.17 159.697,233.65L211.101,285.053Z" style="fill:white;"/>
    </g>
    <defs>
        <linearGradient id="_Linear1" x1="0" y1="0" x2="1" y2="0" gradientUnits="userSpaceOnUse" gradientTransform="matrix(0.0208368,490.06,-490.06,0.0208368,324.501,42.5894)"><stop offset="0" style="stop-color:rgb(0,152,255);stop-opacity:1"/><stop offset="1" style="stop-color:rgb(0,74,214);stop-opacity:1"/></linearGradient>
    </defs>
</svg>
