<?xml version="1.0" encoding="UTF-8" standalone="no"?><!DOCTYPE svg PUBLIC "-//W3C//DTD SVG 1.1//EN" "http://www.w3.org/Graphics/SVG/1.1/DTD/svg11.dtd"><svg width="100%" height="100%" viewBox="0 0 2100 500" version="1.1" xmlns="http://www.w3.org/2000/svg" xmlns:xlink="http://www.w3.org/1999/xlink" xml:space="preserve" xmlns:serif="http://www.serif.com/" style="fill-rule:evenodd;clip-rule:evenodd;stroke-linejoin:round;stroke-miterlimit:2;"><rect id="LogoDark" x="0" y="0" width="2100" height="500" style="fill:none;"/><path d="M679.088,304.552l0,-150.608l28.869,0l0,54.243c8.903,-10.136 19.45,-15.204 31.642,-15.204c13.286,0 24.279,4.811 32.977,14.434c8.698,9.623 13.047,23.44 13.047,41.453c0,18.629 -4.434,32.977 -13.304,43.045c-8.869,10.068 -19.639,15.102 -32.309,15.102c-6.233,0 -12.38,-1.558 -18.441,-4.674c-6.062,-3.116 -11.284,-7.722 -15.667,-13.818l0,16.027l-26.814,0Zm28.663,-56.915c0,11.301 1.781,19.657 5.342,25.067c5,7.671 11.643,11.506 19.931,11.506c6.369,0 11.797,-2.722 16.283,-8.167c4.486,-5.445 6.729,-14.023 6.729,-25.735c0,-12.465 -2.26,-21.454 -6.78,-26.967c-4.521,-5.514 -10.308,-8.271 -17.362,-8.271c-6.918,0 -12.671,2.689 -17.26,8.065c-4.589,5.377 -6.883,13.544 -6.883,24.502Z" style="fill:#333;fill-rule:nonzero;"/><path d="M872.022,269.828l28.766,4.828c-3.698,10.547 -9.537,18.578 -17.516,24.091c-7.979,5.514 -17.961,8.27 -29.947,8.27c-18.972,0 -33.012,-6.198 -42.121,-18.595c-7.191,-9.93 -10.787,-22.464 -10.787,-37.6c0,-18.081 4.726,-32.241 14.177,-42.481c9.452,-10.239 21.403,-15.358 35.854,-15.358c16.232,0 29.04,5.359 38.423,16.078c9.383,10.718 13.869,27.138 13.458,49.26l-72.325,0c0.206,8.562 2.534,15.222 6.986,19.982c4.452,4.76 10,7.14 16.643,7.14c4.52,0 8.322,-1.233 11.404,-3.698c3.082,-2.466 5.41,-6.438 6.985,-11.917Zm1.644,-29.177c-0.205,-8.355 -2.363,-14.708 -6.472,-19.057c-4.109,-4.349 -9.109,-6.524 -14.999,-6.524c-6.301,0 -11.506,2.295 -15.616,6.884c-4.109,4.588 -6.129,10.821 -6.061,18.697l43.148,0Z" style="fill:#333;fill-rule:nonzero;"/><path d="M983.489,195.448l26.916,0l0,16.027c3.493,-5.479 8.219,-9.931 14.177,-13.356c5.959,-3.424 12.568,-5.136 19.828,-5.136c12.67,0 23.423,4.965 32.258,14.896c8.835,9.931 13.253,23.766 13.253,41.505c0,18.218 -4.452,32.378 -13.355,42.48c-8.904,10.102 -19.691,15.153 -32.362,15.153c-6.027,0 -11.489,-1.198 -16.386,-3.595c-4.897,-2.398 -10.05,-6.507 -15.461,-12.328l0,54.962l-28.868,0l0,-150.608Zm28.56,52.703c0,12.259 2.431,21.317 7.294,27.173c4.863,5.856 10.787,8.784 17.773,8.784c6.712,0 12.294,-2.689 16.745,-8.065c4.452,-5.376 6.678,-14.194 6.678,-26.454c0,-11.438 -2.294,-19.93 -6.883,-25.478c-4.589,-5.548 -10.273,-8.321 -17.054,-8.321c-7.054,0 -12.91,2.722 -17.567,8.167c-4.658,5.445 -6.986,13.509 -6.986,24.194Z" style="fill:#333;fill-rule:nonzero;"/><path d="M1140.47,304.552l-28.868,0l0,-109.104l26.813,0l0,15.513c4.589,-7.328 8.716,-12.157 12.38,-14.485c3.664,-2.329 7.825,-3.493 12.482,-3.493c6.575,0 12.91,1.815 19.006,5.445l-8.938,25.169c-4.863,-3.15 -9.383,-4.725 -13.561,-4.725c-4.041,0 -7.465,1.113 -10.273,3.338c-2.808,2.226 -5.017,6.25 -6.627,12.072c-1.609,5.821 -2.414,18.012 -2.414,36.573l0,33.697Z" style="fill:#333;fill-rule:nonzero;"/><path d="M1188.03,248.459c0,-9.589 2.363,-18.869 7.088,-27.841c4.726,-8.972 11.421,-15.821 20.085,-20.547c8.664,-4.725 18.338,-7.088 29.022,-7.088c16.506,0 30.033,5.359 40.58,16.078c10.547,10.718 15.821,24.262 15.821,40.631c0,16.506 -5.325,30.186 -15.975,41.042c-10.65,10.856 -24.057,16.283 -40.22,16.283c-10,0 -19.537,-2.26 -28.612,-6.78c-9.075,-4.52 -15.975,-11.147 -20.701,-19.879c-4.725,-8.733 -7.088,-19.365 -7.088,-31.899Zm29.587,1.541c0,10.821 2.569,19.108 7.705,24.862c5.137,5.753 11.472,8.629 19.006,8.629c7.534,0 13.852,-2.876 18.954,-8.629c5.103,-5.754 7.654,-14.109 7.654,-25.067c0,-10.685 -2.551,-18.903 -7.654,-24.657c-5.102,-5.753 -11.42,-8.629 -18.954,-8.629c-7.534,0 -13.869,2.876 -19.006,8.629c-5.136,5.754 -7.705,14.041 -7.705,24.862Z" style="fill:#333;fill-rule:nonzero;"/><path d="M1423.29,304.552l-26.813,0l0,-16.027c-4.452,6.233 -9.709,10.873 -15.77,13.921c-6.061,3.047 -12.174,4.571 -18.338,4.571c-12.533,0 -23.269,-5.051 -32.207,-15.153c-8.938,-10.102 -13.407,-24.194 -13.407,-42.275c0,-18.492 4.349,-32.549 13.048,-42.172c8.698,-9.623 19.69,-14.434 32.977,-14.434c12.191,0 22.739,5.068 31.642,15.204l0,-54.243l28.868,0l0,150.608Zm-77.05,-56.915c0,11.643 1.609,20.067 4.828,25.273c4.658,7.533 11.164,11.3 19.52,11.3c6.643,0 12.294,-2.825 16.951,-8.475c4.657,-5.651 6.986,-14.092 6.986,-25.324c0,-12.534 -2.26,-21.557 -6.781,-27.07c-4.52,-5.514 -10.307,-8.271 -17.362,-8.271c-6.849,0 -12.585,2.723 -17.208,8.168c-4.623,5.445 -6.934,13.578 -6.934,24.399Z" style="fill:#333;fill-rule:nonzero;"/><path d="M1523.56,304.552l0,-16.335c-3.973,5.822 -9.195,10.41 -15.667,13.766c-6.473,3.356 -13.304,5.034 -20.496,5.034c-7.328,0 -13.903,-1.609 -19.725,-4.828c-5.821,-3.219 -10.033,-7.739 -12.636,-13.561c-2.603,-5.822 -3.904,-13.869 -3.904,-24.143l0,-69.037l28.868,0l0,50.134c0,15.342 0.531,24.742 1.593,28.201c1.061,3.459 2.996,6.198 5.804,8.219c2.808,2.02 6.37,3.03 10.685,3.03c4.931,0 9.348,-1.352 13.252,-4.058c3.904,-2.705 6.575,-6.061 8.013,-10.068c1.439,-4.006 2.158,-13.817 2.158,-29.433l0,-46.025l28.868,0l0,109.104l-26.813,0Z" style="fill:#333;fill-rule:nonzero;"/><path d="M1675.4,227.707l-28.457,5.136c-0.959,-5.684 -3.133,-9.965 -6.524,-12.841c-3.39,-2.877 -7.79,-4.315 -13.201,-4.315c-7.191,0 -12.927,2.483 -17.208,7.448c-4.28,4.966 -6.421,13.27 -6.421,24.913c0,12.945 2.175,22.088 6.524,27.43c4.349,5.342 10.188,8.013 17.516,8.013c5.479,0 9.965,-1.558 13.458,-4.674c3.493,-3.116 5.959,-8.476 7.397,-16.078l28.354,4.828c-2.945,13.013 -8.595,22.842 -16.951,29.485c-8.355,6.644 -19.553,9.965 -33.594,9.965c-15.958,0 -28.679,-5.034 -38.165,-15.102c-9.486,-10.068 -14.229,-24.005 -14.229,-41.812c0,-18.013 4.76,-32.036 14.28,-42.07c9.52,-10.033 22.396,-15.05 38.628,-15.05c13.287,0 23.851,2.859 31.693,8.578c7.842,5.719 13.476,14.434 16.9,26.146Z" style="fill:#333;fill-rule:nonzero;"/><path d="M1747.32,195.448l0,23.013l-19.725,0l0,43.97c0,8.903 0.188,14.091 0.565,15.564c0.377,1.472 1.233,2.688 2.568,3.647c1.336,0.959 2.963,1.438 4.88,1.438c2.671,0 6.541,-0.924 11.609,-2.774l2.466,22.396c-6.712,2.877 -14.314,4.315 -22.807,4.315c-5.205,0 -9.897,-0.873 -14.075,-2.619c-4.178,-1.747 -7.242,-4.007 -9.194,-6.781c-1.952,-2.774 -3.305,-6.523 -4.058,-11.249c-0.617,-3.356 -0.925,-10.137 -0.925,-20.342l0,-47.565l-13.253,0l0,-23.013l13.253,0l0,-21.677l28.971,-16.848l0,38.525l19.725,0Z" style="fill:#333;fill-rule:nonzero;"/><path d="M1767.35,180.655l0,-26.711l28.868,0l0,26.711l-28.868,0Zm0,123.897l0,-109.104l28.868,0l0,109.104l-28.868,0Z" style="fill:#333;fill-rule:nonzero;"/><path d="M1855.8,304.552l-43.97,-109.104l30.306,0l20.547,55.682l5.959,18.595c1.575,-4.726 2.568,-7.842 2.979,-9.349c0.959,-3.082 1.986,-6.164 3.082,-9.246l20.752,-55.682l29.69,0l-43.354,109.104l-25.991,0Z" style="fill:#333;fill-rule:nonzero;"/><path d="M2006,269.828l28.765,4.828c-3.698,10.547 -9.537,18.578 -17.516,24.091c-7.979,5.514 -17.961,8.27 -29.947,8.27c-18.971,0 -33.012,-6.198 -42.121,-18.595c-7.191,-9.93 -10.787,-22.464 -10.787,-37.6c0,-18.081 4.726,-32.241 14.177,-42.481c9.452,-10.239 21.403,-15.358 35.855,-15.358c16.232,0 29.039,5.359 38.422,16.078c9.383,10.718 13.869,27.138 13.458,49.26l-72.324,0c0.205,8.562 2.534,15.222 6.985,19.982c4.452,4.76 10,7.14 16.643,7.14c4.521,0 8.322,-1.233 11.404,-3.698c3.082,-2.466 5.41,-6.438 6.986,-11.917Zm1.643,-29.177c-0.205,-8.355 -2.362,-14.708 -6.472,-19.057c-4.109,-4.349 -9.109,-6.524 -14.999,-6.524c-6.301,0 -11.506,2.295 -15.615,6.884c-4.11,4.588 -6.13,10.821 -6.062,18.697l43.148,0Z" style="fill:#333;fill-rule:nonzero;"/><rect x="2059.83" y="275.683" width="28.868" height="28.868" style="fill:#333;fill-rule:nonzero;"/><g><path d="M491.42,129.97c0,-66.246 -53.784,-120.03 -120.03,-120.03l-240.06,0c-66.246,0 -120.029,53.784 -120.029,120.03l0,240.06c0,66.246 53.783,120.03 120.029,120.03l240.06,0c66.246,0 120.03,-53.784 120.03,-120.03l0,-240.06Z" style="fill:url(#_Linear1);"/><path d="M215.033,279.125l115.365,-115.364c4.553,-4.553 11.946,-4.553 16.499,0l16.498,16.498c4.553,4.553 4.553,11.946 0,16.499l-139.481,139.481c-2.437,2.438 -5.688,3.57 -8.881,3.398c-3.193,0.172 -6.444,-0.96 -8.881,-3.398l-66.827,-66.826c-4.553,-4.553 -4.553,-11.946 0,-16.499l16.499,-16.499c4.553,-4.553 11.946,-4.553 16.499,0l42.71,42.71Z" style="fill:#fff;"/></g><defs><linearGradient id="_Linear1" x1="0" y1="0" x2="1" y2="0" gradientUnits="userSpaceOnUse" gradientTransform="matrix(490.06,0,0,124.953,43.953,176.851)"><stop offset="0" style="stop-color:#0098ff;stop-opacity:1"/><stop offset="1" style="stop-color:#085dff;stop-opacity:1"/></linearGradient></defs></svg>