<?xml version="1.0" encoding="UTF-8" standalone="no"?><!DOCTYPE svg PUBLIC "-//W3C//DTD SVG 1.1//EN" "http://www.w3.org/Graphics/SVG/1.1/DTD/svg11.dtd"><svg width="100%" height="100%" viewBox="0 0 512 512" version="1.1" xmlns="http://www.w3.org/2000/svg" xmlns:xlink="http://www.w3.org/1999/xlink" xml:space="preserve" xmlns:serif="http://www.serif.com/" style="fill-rule:evenodd;clip-rule:evenodd;stroke-linejoin:round;stroke-miterlimit:2;"><g><path d="M257.047,315.186c22.69,0 43.25,9.235 58.154,24.134l24.093,-24.093c-17.323,-17.318 -40.066,-29.203 -65.417,-32.891l-34.919,34.925c5.829,-1.315 11.869,-2.075 18.089,-2.075Z" style="fill-rule:nonzero;"/><path d="M223.298,363.721l33.749,33.754l33.748,-33.754c-8.633,-8.644 -20.575,-13.985 -33.748,-13.98c-13.179,0.005 -25.116,5.341 -33.749,13.98Z" style="fill-rule:nonzero;"/><path d="M257.047,213.37c-50.754,-0.005 -96.788,20.647 -130.126,53.979l24.103,24.093c19.301,-19.296 43.836,-33.337 71.247,-39.876l38.114,-38.119c-1.115,-0.01 -2.219,-0.077 -3.338,-0.077Z" style="fill-rule:nonzero;"/><path d="M363.074,291.447l24.088,-24.093c-16.718,-16.717 -36.635,-30.24 -58.73,-39.572l-26.538,26.532c23.364,7.334 44.278,20.226 61.18,37.133Z" style="fill-rule:nonzero;"/><path d="M257.047,145.446c-69.48,0 -132.494,28.264 -178.127,73.907l24.098,24.099c39.465,-39.465 93.948,-63.903 154.034,-63.908c11.741,0 23.25,0.961 34.498,2.758l28.787,-28.792c-20.23,-5.259 -41.437,-8.064 -63.29,-8.064Z" style="fill-rule:nonzero;"/><path d="M353.896,202.317c21.248,10.591 40.559,24.504 57.184,41.119l24.088,-24.093c-16.553,-16.558 -35.423,-30.79 -56.039,-42.259l-25.233,25.233Z" style="fill-rule:nonzero;"/></g><path d="M258.223,22.342c-129.279,0 -234.459,105.18 -234.459,234.458c0,129.283 105.18,234.458 234.459,234.458c129.283,0 234.458,-105.18 234.458,-234.458c0.005,-129.278 -105.175,-234.458 -234.458,-234.458Zm0,33.825c48.376,0 92.802,17.211 127.491,45.829l-282.296,282.295c-28.617,-34.689 -45.828,-79.115 -45.828,-127.491c0,-110.629 90.008,-200.633 200.633,-200.633Zm0,401.261c-48.371,0 -92.798,-17.206 -127.481,-45.819l282.295,-282.29c28.613,34.684 45.818,79.11 45.818,127.481c0,110.629 -90.003,200.628 -200.632,200.628Z" style="fill:url(#_Linear1);fill-rule:nonzero;"/><defs><linearGradient id="_Linear1" x1="0" y1="0" x2="1" y2="0" gradientUnits="userSpaceOnUse" gradientTransform="matrix(468.917,0,0,468.917,23.7643,256.8)"><stop offset="0" style="stop-color:#006fff;stop-opacity:1"/><stop offset="1" style="stop-color:#1d33c8;stop-opacity:1"/></linearGradient></defs></svg>