<?xml version="1.0" encoding="UTF-8" standalone="no"?><!DOCTYPE svg PUBLIC "-//W3C//DTD SVG 1.1//EN" "http://www.w3.org/Graphics/SVG/1.1/DTD/svg11.dtd"><svg width="100%" height="100%" viewBox="0 0 512 512" version="1.1" xmlns="http://www.w3.org/2000/svg" xmlns:xlink="http://www.w3.org/1999/xlink" xml:space="preserve" xmlns:serif="http://www.serif.com/" style="fill-rule:evenodd;clip-rule:evenodd;stroke-linejoin:round;stroke-miterlimit:2;"><g><path d="M88.645,207.004c-9.116,9.116 -25.068,9.116 -34.183,0c-9.116,-9.115 -9.116,-25.068 0,-34.183c55.832,-55.833 128.756,-83.179 201.68,-83.179c72.925,0 145.849,27.346 200.542,83.179c10.255,9.115 10.255,25.068 0,34.183c-9.116,9.116 -23.928,9.116 -33.044,0c-46.717,-45.577 -107.107,-69.506 -167.498,-69.506c-60.39,0 -121.92,23.929 -167.497,69.506Z" style="fill:url(#_Linear1);fill-rule:nonzero;"/><path d="M117.131,269.673c-10.255,-10.255 -9.116,-25.067 1.139,-35.322c37.602,-37.602 87.737,-56.972 137.872,-56.972c52.415,0 101.411,20.51 139.012,58.111c9.116,9.116 9.116,25.068 0,34.183c-10.255,9.116 -25.068,9.116 -34.183,0c-29.626,-29.625 -67.227,-43.298 -104.829,-43.298c-38.741,0 -76.342,13.673 -104.828,43.298c-9.116,9.116 -25.068,9.116 -34.183,0Z" style="fill:url(#_Linear2);fill-rule:nonzero;"/><path d="M212.844,331.203c-9.116,10.255 -23.929,10.255 -34.183,0c-9.116,-9.116 -9.116,-23.928 0,-33.044c21.649,-21.649 48.995,-31.904 77.481,-31.904c27.347,0 55.833,10.255 76.343,31.904c9.115,9.116 9.115,23.928 0,33.044c-9.116,10.255 -25.068,10.255 -34.183,0c-11.395,-11.394 -27.347,-17.092 -42.16,-17.092c-15.952,0 -30.764,5.698 -43.298,17.092Z" style="fill:url(#_Linear3);fill-rule:nonzero;"/><path d="M256.142,355.131c18.231,0 33.044,14.813 33.044,33.044c0,19.37 -14.813,34.183 -33.044,34.183c-18.231,0 -34.183,-14.813 -34.183,-34.183c0,-18.231 15.952,-33.044 34.183,-33.044Z" style="fill:url(#_Linear4);"/></g><defs><linearGradient id="_Linear1" x1="0" y1="0" x2="1" y2="0" gradientUnits="userSpaceOnUse" gradientTransform="matrix(416.75,0,0,332.716,47.625,256)"><stop offset="0" style="stop-color:#008eff;stop-opacity:1"/><stop offset="1" style="stop-color:#002fff;stop-opacity:1"/></linearGradient><linearGradient id="_Linear2" x1="0" y1="0" x2="1" y2="0" gradientUnits="userSpaceOnUse" gradientTransform="matrix(416.75,0,0,332.716,47.625,256)"><stop offset="0" style="stop-color:#008eff;stop-opacity:1"/><stop offset="1" style="stop-color:#002fff;stop-opacity:1"/></linearGradient><linearGradient id="_Linear3" x1="0" y1="0" x2="1" y2="0" gradientUnits="userSpaceOnUse" gradientTransform="matrix(416.75,0,0,332.716,47.625,256)"><stop offset="0" style="stop-color:#008eff;stop-opacity:1"/><stop offset="1" style="stop-color:#002fff;stop-opacity:1"/></linearGradient><linearGradient id="_Linear4" x1="0" y1="0" x2="1" y2="0" gradientUnits="userSpaceOnUse" gradientTransform="matrix(416.75,0,0,332.716,47.625,256)"><stop offset="0" style="stop-color:#008eff;stop-opacity:1"/><stop offset="1" style="stop-color:#002fff;stop-opacity:1"/></linearGradient></defs></svg>