<?xml version="1.0" encoding="UTF-8" standalone="no"?><!DOCTYPE svg PUBLIC "-//W3C//DTD SVG 1.1//EN" "http://www.w3.org/Graphics/SVG/1.1/DTD/svg11.dtd"><svg width="100%" height="100%" viewBox="0 0 2560 2560" version="1.1" xmlns="http://www.w3.org/2000/svg" xmlns:xlink="http://www.w3.org/1999/xlink" xml:space="preserve" xmlns:serif="http://www.serif.com/" style="fill-rule:evenodd;clip-rule:evenodd;stroke-linecap:round;stroke-linejoin:round;stroke-miterlimit:1.5;"><rect id="SETTINGS" x="0" y="0" width="2560" height="2560" style="fill:none;"/><path d="M1362.49,407.39c-54.868,-5.187 -110.104,-5.187 -164.972,0l-83.252,182.261c-72.442,17.392 -141.695,46.078 -205.218,85.004l-187.746,-70.01c-42.465,35.13 -81.523,74.188 -116.653,116.653l70.01,187.746c-38.926,63.523 -67.612,132.776 -85.004,205.218l-182.261,83.252c-5.187,54.868 -5.187,110.104 0,164.972l182.261,83.252c17.392,72.442 46.078,141.695 85.004,205.218l-70.01,187.746c35.13,42.465 74.188,81.523 116.653,116.653l187.746,-70.01c63.523,38.926 132.776,67.612 205.218,85.004l83.252,182.261c54.868,5.187 110.104,5.187 164.972,0l83.252,-182.261c72.442,-17.392 141.695,-46.078 205.218,-85.004l187.746,70.01c42.465,-35.13 81.523,-74.188 116.653,-116.653l-70.01,-187.746c38.926,-63.523 67.612,-132.776 85.004,-205.218l182.261,-83.252c5.187,-54.868 5.187,-110.104 0,-164.972l-182.261,-83.252c-17.392,-72.442 -46.078,-141.695 -85.004,-205.218l70.01,-187.746c-35.13,-42.465 -74.188,-81.523 -116.653,-116.653l-187.746,70.01c-63.523,-38.926 -132.776,-67.612 -205.218,-85.004l-83.252,-182.261Zm-82.486,592.13c154.801,0 280.48,125.679 280.48,280.48c0,154.801 -125.679,280.48 -280.48,280.48c-154.801,0 -280.48,-125.679 -280.48,-280.48c0,-154.801 125.679,-280.48 280.48,-280.48Z" style="fill:#c8c8c8;stroke:#787878;stroke-width:120px;"/></svg>