<?xml version="1.0" encoding="UTF-8" standalone="no"?><!DOCTYPE svg PUBLIC "-//W3C//DTD SVG 1.1//EN" "http://www.w3.org/Graphics/SVG/1.1/DTD/svg11.dtd"><svg width="100%" height="100%" viewBox="0 0 2560 2560" version="1.1" xmlns="http://www.w3.org/2000/svg" xmlns:xlink="http://www.w3.org/1999/xlink" xml:space="preserve" xmlns:serif="http://www.serif.com/" style="fill-rule:evenodd;clip-rule:evenodd;stroke-linecap:round;stroke-linejoin:round;stroke-miterlimit:1.5;"><rect id="SETTINGS-DARK" serif:id="SETTINGS DARK" x="0" y="0" width="2560" height="2560" style="fill:none;"/><path d="M1389.71,119.424c-72.975,-6.899 -146.439,-6.899 -219.414,0l-110.726,242.408c-96.348,23.132 -188.455,61.284 -272.94,113.056l-249.704,-93.114c-56.479,46.724 -108.425,98.67 -155.149,155.149l93.114,249.704c-51.772,84.485 -89.924,176.592 -113.056,272.94l-242.408,110.726c-6.899,72.975 -6.899,146.439 0,219.414l242.408,110.726c23.132,96.348 61.284,188.455 113.056,272.94l-93.114,249.704c46.724,56.479 98.67,108.425 155.149,155.149l249.704,-93.114c84.485,51.772 176.592,89.924 272.94,113.056l110.726,242.408c72.975,6.899 146.439,6.899 219.414,0l110.726,-242.408c96.348,-23.132 188.455,-61.284 272.94,-113.056l249.704,93.114c56.479,-46.724 108.425,-98.67 155.149,-155.149l-93.114,-249.704c51.772,-84.485 89.924,-176.592 113.056,-272.94l242.408,-110.726c6.899,-72.975 6.899,-146.439 0,-219.414l-242.408,-110.726c-23.132,-96.348 -61.284,-188.455 -113.056,-272.94l93.114,-249.704c-46.724,-56.479 -98.67,-108.425 -155.149,-155.149l-249.704,93.114c-84.485,-51.772 -176.592,-89.924 -272.94,-113.056l-110.726,-242.408Zm-109.707,787.536c205.886,0 373.04,167.154 373.04,373.04c0,205.886 -167.154,373.04 -373.04,373.04c-205.886,0 -373.04,-167.154 -373.04,-373.04c0,-205.886 167.154,-373.04 373.04,-373.04Z" style="fill:#ccc;stroke:#8d8d8d;stroke-width:120px;"/></svg>