<?xml version="1.0" encoding="UTF-8" standalone="no"?><!DOCTYPE svg PUBLIC "-//W3C//DTD SVG 1.1//EN" "http://www.w3.org/Graphics/SVG/1.1/DTD/svg11.dtd"><svg width="100%" height="100%" viewBox="0 0 2560 500" version="1.1" xmlns="http://www.w3.org/2000/svg" xmlns:xlink="http://www.w3.org/1999/xlink" xml:space="preserve" xmlns:serif="http://www.serif.com/" style="fill-rule:evenodd;clip-rule:evenodd;stroke-linejoin:round;stroke-miterlimit:2;"><rect id="ArtBoard5" x="0" y="0" width="2560" height="500" style="fill:none;"/><path d="M619.315,308.088l254.99,-254.99c10.064,-10.064 26.404,-10.064 36.468,0l36.467,36.467c10.064,10.064 10.064,26.404 0,36.468l-308.294,308.294c-5.387,5.387 -12.572,7.89 -19.631,7.51c-7.058,0.38 -14.243,-2.123 -19.63,-7.51l-147.707,-147.707c-10.064,-10.064 -10.064,-26.404 0,-36.468l36.467,-36.467c10.064,-10.064 26.404,-10.064 36.468,0l94.402,94.403Z" style="fill:url(#_Linear1);"/><text x="906.742px" y="447.43px" style="font-family:'Arial-BoldMT', 'Arial', sans-serif;font-weight:700;font-size:169.543px;fill:#333;">be productive.</text><defs><linearGradient id="_Linear1" x1="0" y1="0" x2="1" y2="0" gradientUnits="userSpaceOnUse" gradientTransform="matrix(520.925,0,0,103.145,479.139,183.33)"><stop offset="0" style="stop-color:#0098ff;stop-opacity:1"/><stop offset="1" style="stop-color:#087dff;stop-opacity:1"/></linearGradient></defs></svg>