<?xml version="1.0" encoding="UTF-8" standalone="no"?><!DOCTYPE svg PUBLIC "-//W3C//DTD SVG 1.1//EN" "http://www.w3.org/Graphics/SVG/1.1/DTD/svg11.dtd"><svg width="100%" height="100%" viewBox="0 0 2560 500" version="1.1" xmlns="http://www.w3.org/2000/svg" xmlns:xlink="http://www.w3.org/1999/xlink" xml:space="preserve" xmlns:serif="http://www.serif.com/" style="fill-rule:evenodd;clip-rule:evenodd;stroke-linejoin:round;stroke-miterlimit:2;"><rect id="ArtBoard4" x="0" y="0" width="2560" height="500" style="fill:none;"/><text x="911.152px" y="302.293px" style="font-family:'Arial-BoldMT', 'Arial', sans-serif;font-weight:700;font-size:201.687px;fill:#333;">be productive.</text><g><path d="M744.549,134.94c0,-63.503 -51.556,-115.059 -115.059,-115.059l-230.119,0c-63.503,0 -115.06,51.556 -115.06,115.059l0,230.12c0,63.503 51.557,115.059 115.06,115.059l230.119,0c63.503,0 115.059,-51.556 115.059,-115.059l0,-230.12Z" style="fill:url(#_Linear1);"/><path d="M479.607,277.919l110.588,-110.587c4.364,-4.365 11.451,-4.365 15.816,0l15.815,15.815c4.365,4.365 4.365,11.452 0,15.816l-133.705,133.705c-2.336,2.337 -5.452,3.422 -8.514,3.257c-3.061,0.165 -6.177,-0.92 -8.513,-3.257l-64.06,-64.059c-4.364,-4.365 -4.364,-11.452 0,-15.816l15.816,-15.816c4.364,-4.364 11.451,-4.364 15.816,0l40.941,40.942Z" style="fill:#fff;"/></g><defs><linearGradient id="_Linear1" x1="0" y1="0" x2="1" y2="0" gradientUnits="userSpaceOnUse" gradientTransform="matrix(469.768,0,0,119.779,315.611,179.88)"><stop offset="0" style="stop-color:#0098ff;stop-opacity:1"/><stop offset="1" style="stop-color:#087dff;stop-opacity:1"/></linearGradient></defs></svg>