<?xml version="1.0" encoding="UTF-8" standalone="no"?><!DOCTYPE svg PUBLIC "-//W3C//DTD SVG 1.1//EN" "http://www.w3.org/Graphics/SVG/1.1/DTD/svg11.dtd"><svg width="100%" height="100%" viewBox="0 0 800 800" version="1.1" xmlns="http://www.w3.org/2000/svg" xmlns:xlink="http://www.w3.org/1999/xlink" xml:space="preserve" xmlns:serif="http://www.serif.com/" style="fill-rule:evenodd;clip-rule:evenodd;stroke-linecap:round;stroke-linejoin:round;stroke-miterlimit:1.5;"><path d="M442.857,111.641c-28.42,-4.159 -57.294,-4.159 -85.714,0c-0.01,26.228 -10.726,46.908 -32.148,62.041c-12.093,3.929 -23.858,8.802 -35.188,14.575c-25.847,4.447 -48.048,-2.599 -66.6,-21.138c-23.037,17.156 -43.454,37.573 -60.61,60.61c18.539,18.552 25.585,40.753 21.138,66.601c-5.773,11.329 -10.646,23.094 -14.575,35.187c-15.133,21.422 -35.813,32.138 -62.041,32.148c-4.159,28.42 -4.159,57.294 0,85.714c26.228,0.01 46.908,10.726 62.041,32.148c3.929,12.093 8.802,23.858 14.575,35.188c4.447,25.848 -2.599,48.048 -21.138,66.601c17.156,23.036 37.573,43.453 60.61,60.609c18.552,-18.539 40.753,-25.585 66.6,-21.138c11.33,5.773 23.095,10.646 35.188,14.576c21.422,15.132 32.138,35.812 32.148,62.04c28.42,4.159 57.294,4.159 85.714,0c0.01,-26.228 10.726,-46.908 32.148,-62.04c12.093,-3.93 23.858,-8.803 35.188,-14.576c25.847,-4.447 48.048,2.599 66.6,21.138c23.037,-17.156 43.454,-37.573 60.61,-60.609c-18.539,-18.553 -25.585,-40.753 -21.138,-66.601c5.773,-11.33 10.646,-23.095 14.575,-35.188c15.133,-21.422 35.813,-32.138 62.041,-32.148c4.159,-28.42 4.159,-57.294 0,-85.714c-26.228,-0.01 -46.908,-10.726 -62.041,-32.148c-3.929,-12.093 -8.802,-23.858 -14.575,-35.187c-4.447,-25.848 2.599,-48.049 21.138,-66.601c-17.156,-23.037 -37.573,-43.454 -60.61,-60.61c-18.552,18.539 -40.753,25.585 -66.6,21.138c-11.33,-5.773 -23.095,-10.646 -35.188,-14.575c-21.422,-15.133 -32.138,-35.813 -32.148,-62.041Zm-42.857,183.361c60.446,0 109.52,49.074 109.52,109.52c0,60.446 -49.074,109.52 -109.52,109.52c-60.446,0 -109.52,-49.074 -109.52,-109.52c0,-60.446 49.074,-109.52 109.52,-109.52Z" style="fill:none;stroke:#272727;stroke-width:30.67px;"/></svg>