<?xml version="1.0" encoding="UTF-8" standalone="no"?>
<!DOCTYPE svg PUBLIC "-//W3C//DTD SVG 1.1//EN" "http://www.w3.org/Graphics/SVG/1.1/DTD/svg11.dtd">
<svg width="100%" height="100%" viewBox="0 0 800 800" version="1.1" xmlns="http://www.w3.org/2000/svg" xmlns:xlink="http://www.w3.org/1999/xlink" xml:space="preserve" xmlns:serif="http://www.serif.com/" style="fill-rule:evenodd;clip-rule:evenodd;stroke-linecap:round;stroke-linejoin:round;stroke-miterlimit:1.5;">
    <rect id="ArtBoard1" x="0" y="0" width="800" height="800" style="fill:none;"/>
    <g id="ArtBoard11" serif:id="ArtBoard1" transform="matrix(1,0,0,1,-1.13687e-13,-4.522)">
        <path d="M442.857,111.641C414.437,107.482 385.563,107.482 357.143,111.641C357.133,137.869 346.417,158.549 324.995,173.682C312.902,177.611 301.137,182.484 289.807,188.257C263.96,192.704 241.759,185.658 223.207,167.119C200.17,184.275 179.753,204.692 162.597,227.729C181.136,246.281 188.182,268.482 183.735,294.33C177.962,305.659 173.089,317.424 169.16,329.517C154.027,350.939 133.347,361.655 107.119,361.665C102.96,390.085 102.96,418.959 107.119,447.379C133.347,447.389 154.027,458.105 169.16,479.527C173.089,491.62 177.962,503.385 183.735,514.715C188.182,540.563 181.136,562.763 162.597,581.316C179.753,604.352 200.17,624.769 223.207,641.925C241.759,623.386 263.96,616.34 289.807,620.787C301.137,626.56 312.902,631.433 324.995,635.363C346.417,650.495 357.133,671.175 357.143,697.403C385.563,701.562 414.437,701.562 442.857,697.403C442.867,671.175 453.583,650.495 475.005,635.363C487.098,631.433 498.863,626.56 510.193,620.787C536.04,616.34 558.241,623.386 576.793,641.925C599.83,624.769 620.247,604.352 637.403,581.316C618.864,562.763 611.818,540.563 616.265,514.715C622.038,503.385 626.911,491.62 630.84,479.527C645.973,458.105 666.653,447.389 692.881,447.379C697.04,418.959 697.04,390.085 692.881,361.665C666.653,361.655 645.973,350.939 630.84,329.517C626.911,317.424 622.038,305.659 616.265,294.33C611.818,268.482 618.864,246.281 637.403,227.729C620.247,204.692 599.83,184.275 576.793,167.119C558.241,185.658 536.04,192.704 510.193,188.257C498.863,182.484 487.098,177.611 475.005,173.682C453.583,158.549 442.867,137.869 442.857,111.641ZM400,295.002C460.446,295.002 509.52,344.076 509.52,404.522C509.52,464.968 460.446,514.042 400,514.042C339.554,514.042 290.48,464.968 290.48,404.522C290.48,344.076 339.554,295.002 400,295.002Z" style="fill:none;stroke:white;stroke-width:60px;"/>
    </g>
</svg>
